<mxfile host="app.diagrams.net" modified="2021-06-17T01:54:49.483Z" agent="5.0 (Windows NT 10.0; Win64; x64) AppleWebKit/537.36 (KHTML, like Gecko) Chrome/91.0.4472.101 Safari/537.36 Edg/91.0.864.48" etag="7tW_TqApM4U_oQE-d7vI" version="14.7.2" type="github">
  <diagram id="JWkxy0zKWKl2xdhELnG-" name="Page-1">
    <mxGraphModel dx="2474" dy="762" grid="1" gridSize="10" guides="1" tooltips="1" connect="1" arrows="1" fold="1" page="1" pageScale="1" pageWidth="1100" pageHeight="850" math="0" shadow="0">
      <root>
        <mxCell id="0" />
        <mxCell id="1" parent="0" />
        <mxCell id="Bn9-F2wJFnICWRJY-Sh3-1" value="&lt;font color=&quot;#ffffff&quot; face=&quot;Comic Sans MS&quot;&gt;&lt;b&gt;ngx_socket_t fd&lt;/b&gt;&lt;/font&gt;" style="rounded=0;whiteSpace=wrap;html=1;fillColor=#FF8000;" parent="1" vertex="1">
          <mxGeometry x="160" y="347.5" width="110" height="30" as="geometry" />
        </mxCell>
        <mxCell id="Bn9-F2wJFnICWRJY-Sh3-28" style="rounded=0;orthogonalLoop=1;jettySize=auto;html=1;exitX=1;exitY=0.5;exitDx=0;exitDy=0;entryX=0;entryY=0.5;entryDx=0;entryDy=0;elbow=vertical;" parent="1" source="Bn9-F2wJFnICWRJY-Sh3-2" target="Bn9-F2wJFnICWRJY-Sh3-12" edge="1">
          <mxGeometry relative="1" as="geometry" />
        </mxCell>
        <mxCell id="Bn9-F2wJFnICWRJY-Sh3-2" value="" style="rounded=0;whiteSpace=wrap;html=1;" parent="1" vertex="1">
          <mxGeometry x="160" y="377.5" width="110" height="30" as="geometry" />
        </mxCell>
        <mxCell id="Bn9-F2wJFnICWRJY-Sh3-3" value="" style="rounded=0;whiteSpace=wrap;html=1;" parent="1" vertex="1">
          <mxGeometry x="160" y="407.5" width="110" height="30" as="geometry" />
        </mxCell>
        <mxCell id="Bn9-F2wJFnICWRJY-Sh3-4" value="" style="rounded=0;whiteSpace=wrap;html=1;fillColor=#CCCCCC;" parent="1" vertex="1">
          <mxGeometry x="360" y="315" width="30" height="25" as="geometry" />
        </mxCell>
        <mxCell id="Bn9-F2wJFnICWRJY-Sh3-5" value="" style="rounded=0;whiteSpace=wrap;html=1;fillColor=#CCCCCC;" parent="1" vertex="1">
          <mxGeometry x="390" y="315" width="30" height="25" as="geometry" />
        </mxCell>
        <mxCell id="Bn9-F2wJFnICWRJY-Sh3-6" value="" style="rounded=0;whiteSpace=wrap;html=1;fillColor=#FFFFFF;" parent="1" vertex="1">
          <mxGeometry x="420" y="315" width="30" height="25" as="geometry" />
        </mxCell>
        <mxCell id="Bn9-F2wJFnICWRJY-Sh3-7" value="" style="rounded=0;whiteSpace=wrap;html=1;fillColor=#FFFFFF;" parent="1" vertex="1">
          <mxGeometry x="450" y="315" width="30" height="25" as="geometry" />
        </mxCell>
        <mxCell id="Bn9-F2wJFnICWRJY-Sh3-8" value="" style="rounded=0;whiteSpace=wrap;html=1;fillColor=#FFFFFF;" parent="1" vertex="1">
          <mxGeometry x="480" y="315" width="30" height="25" as="geometry" />
        </mxCell>
        <mxCell id="Bn9-F2wJFnICWRJY-Sh3-9" value="" style="rounded=0;whiteSpace=wrap;html=1;fillColor=#FFFFFF;" parent="1" vertex="1">
          <mxGeometry x="510" y="315" width="30" height="25" as="geometry" />
        </mxCell>
        <mxCell id="Bn9-F2wJFnICWRJY-Sh3-10" value="" style="rounded=0;whiteSpace=wrap;html=1;fillColor=#FFFFFF;" parent="1" vertex="1">
          <mxGeometry x="540" y="315" width="30" height="25" as="geometry" />
        </mxCell>
        <mxCell id="Bn9-F2wJFnICWRJY-Sh3-11" value="" style="rounded=0;whiteSpace=wrap;html=1;fillColor=#FFFFFF;" parent="1" vertex="1">
          <mxGeometry x="570" y="315" width="30" height="25" as="geometry" />
        </mxCell>
        <mxCell id="Bn9-F2wJFnICWRJY-Sh3-12" value="" style="rounded=0;whiteSpace=wrap;html=1;fillColor=#CCCCCC;" parent="1" vertex="1">
          <mxGeometry x="360" y="380" width="30" height="25" as="geometry" />
        </mxCell>
        <mxCell id="Bn9-F2wJFnICWRJY-Sh3-13" value="" style="rounded=0;whiteSpace=wrap;html=1;fillColor=#CCCCCC;" parent="1" vertex="1">
          <mxGeometry x="390" y="380" width="30" height="25" as="geometry" />
        </mxCell>
        <mxCell id="Bn9-F2wJFnICWRJY-Sh3-14" value="" style="rounded=0;whiteSpace=wrap;html=1;fillColor=#FFFFFF;" parent="1" vertex="1">
          <mxGeometry x="420" y="380" width="30" height="25" as="geometry" />
        </mxCell>
        <mxCell id="Bn9-F2wJFnICWRJY-Sh3-15" value="" style="rounded=0;whiteSpace=wrap;html=1;fillColor=#FFFFFF;" parent="1" vertex="1">
          <mxGeometry x="450" y="380" width="30" height="25" as="geometry" />
        </mxCell>
        <mxCell id="Bn9-F2wJFnICWRJY-Sh3-16" value="" style="rounded=0;whiteSpace=wrap;html=1;fillColor=#FFFFFF;" parent="1" vertex="1">
          <mxGeometry x="480" y="380" width="30" height="25" as="geometry" />
        </mxCell>
        <mxCell id="Bn9-F2wJFnICWRJY-Sh3-17" value="" style="rounded=0;whiteSpace=wrap;html=1;fillColor=#FFFFFF;" parent="1" vertex="1">
          <mxGeometry x="510" y="380" width="30" height="25" as="geometry" />
        </mxCell>
        <mxCell id="Bn9-F2wJFnICWRJY-Sh3-18" value="" style="rounded=0;whiteSpace=wrap;html=1;fillColor=#FFFFFF;" parent="1" vertex="1">
          <mxGeometry x="540" y="380" width="30" height="25" as="geometry" />
        </mxCell>
        <mxCell id="Bn9-F2wJFnICWRJY-Sh3-19" value="" style="rounded=0;whiteSpace=wrap;html=1;fillColor=#FFFFFF;" parent="1" vertex="1">
          <mxGeometry x="570" y="380" width="30" height="25" as="geometry" />
        </mxCell>
        <mxCell id="Bn9-F2wJFnICWRJY-Sh3-20" value="" style="rounded=0;whiteSpace=wrap;html=1;fillColor=#CCCCCC;" parent="1" vertex="1">
          <mxGeometry x="360" y="420" width="30" height="25" as="geometry" />
        </mxCell>
        <mxCell id="Bn9-F2wJFnICWRJY-Sh3-21" value="" style="rounded=0;whiteSpace=wrap;html=1;fillColor=#CCCCCC;" parent="1" vertex="1">
          <mxGeometry x="390" y="420" width="30" height="25" as="geometry" />
        </mxCell>
        <mxCell id="Bn9-F2wJFnICWRJY-Sh3-22" value="" style="rounded=0;whiteSpace=wrap;html=1;fillColor=#FFFFFF;" parent="1" vertex="1">
          <mxGeometry x="420" y="420" width="30" height="25" as="geometry" />
        </mxCell>
        <mxCell id="Bn9-F2wJFnICWRJY-Sh3-23" value="" style="rounded=0;whiteSpace=wrap;html=1;fillColor=#FFFFFF;" parent="1" vertex="1">
          <mxGeometry x="450" y="420" width="30" height="25" as="geometry" />
        </mxCell>
        <mxCell id="Bn9-F2wJFnICWRJY-Sh3-24" value="" style="rounded=0;whiteSpace=wrap;html=1;fillColor=#FFFFFF;" parent="1" vertex="1">
          <mxGeometry x="480" y="420" width="30" height="25" as="geometry" />
        </mxCell>
        <mxCell id="Bn9-F2wJFnICWRJY-Sh3-25" value="" style="rounded=0;whiteSpace=wrap;html=1;fillColor=#FFFFFF;" parent="1" vertex="1">
          <mxGeometry x="510" y="420" width="30" height="25" as="geometry" />
        </mxCell>
        <mxCell id="Bn9-F2wJFnICWRJY-Sh3-26" value="" style="rounded=0;whiteSpace=wrap;html=1;fillColor=#FFFFFF;" parent="1" vertex="1">
          <mxGeometry x="540" y="420" width="30" height="25" as="geometry" />
        </mxCell>
        <mxCell id="Bn9-F2wJFnICWRJY-Sh3-27" value="" style="rounded=0;whiteSpace=wrap;html=1;fillColor=#FFFFFF;" parent="1" vertex="1">
          <mxGeometry x="570" y="420" width="30" height="25" as="geometry" />
        </mxCell>
        <mxCell id="Bn9-F2wJFnICWRJY-Sh3-29" value="&lt;font face=&quot;Comic Sans MS&quot;&gt;中文字体&lt;/font&gt;" style="text;html=1;strokeColor=none;fillColor=none;align=center;verticalAlign=middle;whiteSpace=wrap;rounded=0;" parent="1" vertex="1">
          <mxGeometry x="140" y="580" width="130" height="30" as="geometry" />
        </mxCell>
        <mxCell id="0TxSeIuoNo8lbpOv0VX6-2" value="&lt;font color=&quot;#ffffff&quot; face=&quot;Comic Sans MS&quot;&gt;&lt;b&gt;ngx_socket_t fd&lt;/b&gt;&lt;/font&gt;" style="rounded=0;whiteSpace=wrap;html=1;fillColor=#FF8000;" vertex="1" parent="1">
          <mxGeometry x="-60" y="270" width="110" height="30" as="geometry" />
        </mxCell>
        <mxCell id="0TxSeIuoNo8lbpOv0VX6-3" value="" style="rounded=0;whiteSpace=wrap;html=1;" vertex="1" parent="1">
          <mxGeometry x="-60" y="300" width="110" height="30" as="geometry" />
        </mxCell>
        <mxCell id="0TxSeIuoNo8lbpOv0VX6-4" value="" style="rounded=0;whiteSpace=wrap;html=1;" vertex="1" parent="1">
          <mxGeometry x="-60" y="330" width="110" height="30" as="geometry" />
        </mxCell>
        <mxCell id="0TxSeIuoNo8lbpOv0VX6-5" value="&lt;font color=&quot;#ffffff&quot; face=&quot;Comic Sans MS&quot; style=&quot;font-size: 14px&quot;&gt;&lt;b&gt;ngx_socket_t fd&lt;/b&gt;&lt;/font&gt;" style="rounded=0;whiteSpace=wrap;html=1;fillColor=#FF8000;" vertex="1" parent="1">
          <mxGeometry x="-60" y="360" width="110" height="50" as="geometry" />
        </mxCell>
        <mxCell id="0TxSeIuoNo8lbpOv0VX6-6" value="" style="rounded=0;whiteSpace=wrap;html=1;" vertex="1" parent="1">
          <mxGeometry x="-60" y="407.5" width="110" height="30" as="geometry" />
        </mxCell>
        <mxCell id="0TxSeIuoNo8lbpOv0VX6-7" value="&lt;font color=&quot;#ffffff&quot; face=&quot;Comic Sans MS&quot;&gt;&lt;b&gt;ngx_socket_t fd&lt;/b&gt;&lt;/font&gt;" style="rounded=0;whiteSpace=wrap;html=1;fillColor=#FF8000;" vertex="1" parent="1">
          <mxGeometry x="-60" y="437.5" width="110" height="30" as="geometry" />
        </mxCell>
        <mxCell id="0TxSeIuoNo8lbpOv0VX6-8" value="" style="endArrow=none;dashed=1;html=1;dashPattern=1 3;strokeWidth=2;exitX=1;exitY=0.5;exitDx=0;exitDy=0;entryX=0;entryY=0.5;entryDx=0;entryDy=0;" edge="1" parent="1" source="Bn9-F2wJFnICWRJY-Sh3-3" target="Bn9-F2wJFnICWRJY-Sh3-20">
          <mxGeometry width="50" height="50" relative="1" as="geometry">
            <mxPoint x="520" y="520" as="sourcePoint" />
            <mxPoint x="570" y="470" as="targetPoint" />
          </mxGeometry>
        </mxCell>
        <mxCell id="0TxSeIuoNo8lbpOv0VX6-9" value="" style="shape=curlyBracket;whiteSpace=wrap;html=1;rounded=1;" vertex="1" parent="1">
          <mxGeometry x="540" y="440" width="20" height="120" as="geometry" />
        </mxCell>
        <mxCell id="0TxSeIuoNo8lbpOv0VX6-10" value="" style="shape=curlyBracket;whiteSpace=wrap;html=1;rounded=1;" vertex="1" parent="1">
          <mxGeometry x="-90" y="280" width="20" height="180" as="geometry" />
        </mxCell>
        <mxCell id="0TxSeIuoNo8lbpOv0VX6-13" value="16kb" style="text;html=1;strokeColor=none;fillColor=none;align=center;verticalAlign=middle;whiteSpace=wrap;rounded=0;" vertex="1" parent="1">
          <mxGeometry x="-130" y="360" width="40" height="20" as="geometry" />
        </mxCell>
        <mxCell id="0TxSeIuoNo8lbpOv0VX6-15" value="" style="rounded=0;whiteSpace=wrap;html=1;" vertex="1" parent="1">
          <mxGeometry x="270" y="470" width="120" height="60" as="geometry" />
        </mxCell>
        <mxCell id="0TxSeIuoNo8lbpOv0VX6-16" value="16kb" style="text;html=1;strokeColor=none;fillColor=none;align=center;verticalAlign=middle;whiteSpace=wrap;rounded=0;" vertex="1" parent="1">
          <mxGeometry x="-230" y="530" width="40" height="20" as="geometry" />
        </mxCell>
        <mxCell id="0TxSeIuoNo8lbpOv0VX6-17" value="" style="rounded=0;whiteSpace=wrap;html=1;" vertex="1" parent="1">
          <mxGeometry x="270" y="470" width="120" height="60" as="geometry" />
        </mxCell>
      </root>
    </mxGraphModel>
  </diagram>
</mxfile>
